<?xml version="1.0" encoding="utf-8"?>
<!-- Generator: Adobe Illustrator 16.0.4, SVG Export Plug-In . SVG Version: 6.00 Build 0)  -->
<!DOCTYPE svg PUBLIC "-//W3C//DTD SVG 1.1//EN" "http://www.w3.org/Graphics/SVG/1.1/DTD/svg11.dtd">
<svg version="1.1" id="Layer_1" xmlns="http://www.w3.org/2000/svg" xmlns:xlink="http://www.w3.org/1999/xlink" x="0px" y="0px"
	 width="50px" height="50px" viewBox="0 0 50 50" enable-background="new 0 0 50 50" xml:space="preserve">
<path d="M31.052,42.029c-0.172,0.063-0.345,0.137-0.523,0.168c-0.678,0.121-1.112-0.229-1.116-0.922
	c-0.009-1.287-0.009-2.572,0.012-3.859c0.022-1.481-0.012-2.942-1.139-4.162c0.67-0.12,1.266-0.204,1.849-0.338
	c3.862-0.887,5.868-3.323,6.124-7.366c0.13-2.059-0.237-3.947-1.604-5.568c-0.099-0.114-0.103-0.373-0.057-0.539
	c0.365-1.34,0.258-2.649-0.166-3.959c-0.105-0.327-0.279-0.428-0.601-0.407c-1.134,0.063-2.173,0.461-3.089,1.073
	c-0.883,0.593-1.705,0.722-2.754,0.482c-2.31-0.521-4.635-0.369-6.94,0.165c-0.261,0.062-0.612-0.021-0.851-0.161
	c-1.082-0.634-2.164-1.25-3.412-1.496c-0.965-0.188-1.049-0.14-1.305,0.793c-0.322,1.176-0.354,2.353-0.025,3.537
	c0.047,0.172-0.002,0.448-0.117,0.575c-2.557,2.853-1.631,8.244,0.092,10.309c1.34,1.604,3.12,2.326,5.096,2.701
	c0.345,0.065,0.688,0.114,1.033,0.173c-0.296,0.77-0.562,1.497-0.863,2.212c-0.059,0.138-0.246,0.254-0.399,0.313
	c-1.938,0.752-3.604,0.199-4.713-1.56c-0.593-0.938-1.354-1.639-2.488-1.842c-0.036-0.006-0.073-0.026-0.106-0.021
	c-0.305,0.08-0.607,0.164-0.911,0.246c0.171,0.238,0.292,0.558,0.521,0.701c0.961,0.609,1.586,1.475,1.999,2.498
	c0.649,1.604,1.909,2.32,3.546,2.459c0.799,0.066,1.606,0.01,2.481,0.01c0,0.996,0.036,2.133-0.015,3.265
	c-0.026,0.61-0.639,0.854-1.373,0.604c-1.947-0.666-3.752-1.621-5.311-2.963c-5.629-4.85-7.799-10.98-5.928-18.156
	c1.865-7.151,6.726-11.539,13.994-12.916C32.05,6.177,41.577,13.5,42.575,23.709C43.362,31.758,38.626,39.289,31.052,42.029z
	 M21.571,33.189c-0.006,0.014-0.01,0.025-0.016,0.038c0.018,0.003,0.036,0.006,0.055,0.009
	C21.624,33.238,21.636,33.262,21.571,33.189z M17.021,36.371c0.157,0.097,0.307,0.22,0.477,0.273c0.062,0.02,0.177-0.121,0.38-0.271
	c-0.282-0.108-0.448-0.201-0.623-0.225C17.187,36.139,17.099,36.293,17.021,36.371z M18.454,36.617
	c0.023,0.105,0.232,0.236,0.355,0.234c0.119-0.002,0.235-0.16,0.354-0.25c-0.108-0.098-0.216-0.195-0.548-0.494
	C18.543,36.314,18.424,36.482,18.454,36.617z M20.212,36.193c-0.148,0.035-0.273,0.172-0.408,0.266
	c0.079,0.099,0.158,0.193,0.285,0.349c0.175-0.16,0.294-0.271,0.414-0.379C20.403,36.344,20.286,36.176,20.212,36.193z M15.854,35.6
	c0.082,0.156,0.209,0.289,0.381,0.508c0.115-0.188,0.24-0.332,0.218-0.361c-0.109-0.143-0.257-0.26-0.403-0.367
	C16.04,35.373,15.837,35.566,15.854,35.6z"/>
</svg>
